HIERARCHY
ROOT Hips
{
	OFFSET 0.000000 0.000000 0.000000
	CHANNELS 6 Xposition Yposition Zposition Zrotation Yrotation Xrotation 
	JOINT LHipJoint
	{
		OFFSET 0.000000 0.000000 0.000000
		CHANNELS 3 Zrotation Yrotation Xrotation
		JOINT LeftUpLeg
		{
			OFFSET 1.363060 -1.794630 0.839290
			CHANNELS 3 Zrotation Yrotation Xrotation
			JOINT LeftLeg
			{
				OFFSET 2.448110 -6.726130 0.000000
				CHANNELS 3 Zrotation Yrotation Xrotation
				JOINT LeftFoot
				{
					OFFSET 2.562200 -7.039590 0.000000
					CHANNELS 3 Zrotation Yrotation Xrotation
					JOINT LeftToeBase
					{
						OFFSET 0.157640 -0.433110 2.322550
						CHANNELS 3 Zrotation Yrotation Xrotation
						End Site
						{
							OFFSET 0.000000 0.000000 0.000000
						}
					}
				}
			}
		}
	}
	JOINT RHipJoint
	{
		OFFSET 0.000000 0.000000 0.000000
		CHANNELS 3 Zrotation Yrotation Xrotation
		JOINT RightUpLeg
		{
			OFFSET -1.305520 -1.794630 0.839290
			CHANNELS 3 Zrotation Yrotation Xrotation
			JOINT RightLeg
			{
				OFFSET -2.542530 -6.985550 0.000000
				CHANNELS 3 Zrotation Yrotation Xrotation
				JOINT RightFoot
				{
					OFFSET -2.568260 -7.056230 0.000000
					CHANNELS 3 Zrotation Yrotation Xrotation
					JOINT RightToeBase
					{
						OFFSET -0.164730 -0.452590 2.363150
						CHANNELS 3 Zrotation Yrotation Xrotation
						End Site
						{
							OFFSET 0.000000 0.000000 0.000000
						}
					}
				}
			}
		}
	}
	JOINT LowerBack
	{
		OFFSET 0.000000 0.000000 0.000000
		CHANNELS 3 Zrotation Yrotation Xrotation
		JOINT Spine
		{
			OFFSET 0.028270 2.035590 -0.193380
			CHANNELS 3 Zrotation Yrotation Xrotation
			JOINT Spine1
			{
				OFFSET 0.056720 2.048850 -0.042750
				CHANNELS 3 Zrotation Yrotation Xrotation
				JOINT Neck
				{
					OFFSET 0.000000 0.000000 0.000000
					CHANNELS 3 Zrotation Yrotation Xrotation
					JOINT Neck1
					{
						OFFSET -0.054170 1.746240 0.172020
						CHANNELS 3 Zrotation Yrotation Xrotation
						JOINT Head
						{
							OFFSET 0.104070 1.761360 -0.123970
							CHANNELS 3 Zrotation Yrotation Xrotation
							End Site
							{
								OFFSET 0.000000 0.000000 0.000000
							}
						}
					}
				}
				JOINT LeftShoulder
				{
					OFFSET 0.000000 0.000000 0.000000
					CHANNELS 3 Zrotation Yrotation Xrotation
					JOINT LeftArm
					{
						OFFSET 3.362410 1.200890 -0.311210
						CHANNELS 3 Zrotation Yrotation Xrotation
						JOINT LeftForeArm
						{
							OFFSET 4.983000 -0.000000 -0.000000
							CHANNELS 3 Zrotation Yrotation Xrotation
							JOINT LeftHand
							{
								OFFSET 3.483560 -0.000000 -0.000000
								CHANNELS 3 Zrotation Yrotation Xrotation
								JOINT LeftFingerBase
								{
									OFFSET 0.000000 0.000000 0.000000
									CHANNELS 3 Zrotation Yrotation Xrotation
									JOINT LeftHandIndex1
									{
										OFFSET 0.715260 -0.000000 -0.000000
										CHANNELS 3 Zrotation Yrotation Xrotation
										End Site
										{
											OFFSET 0.000000 0.000000 0.000000
										}
									}
								}
								JOINT LThumb
								{
									OFFSET 0.000000 0.000000 0.000000
									CHANNELS 3 Zrotation Yrotation Xrotation
									End Site
									{
										OFFSET 0.000000 0.000000 0.000000
									}
								}
							}
						}
					}
				}
				JOINT RightShoulder
				{
					OFFSET 0.000000 0.000000 0.000000
					CHANNELS 3 Zrotation Yrotation Xrotation
					JOINT RightArm
					{
						OFFSET -3.136600 1.374050 -0.404650
						CHANNELS 3 Zrotation Yrotation Xrotation
						JOINT RightForeArm
						{
							OFFSET -5.241900 -0.000000 -0.000000
							CHANNELS 3 Zrotation Yrotation Xrotation
							JOINT RightHand
							{
								OFFSET -3.444170 -0.000000 -0.000000
								CHANNELS 3 Zrotation Yrotation Xrotation
								JOINT RightFingerBase
								{
									OFFSET 0.000000 0.000000 0.000000
									CHANNELS 3 Zrotation Yrotation Xrotation
									JOINT RightHandIndex1
									{
										OFFSET -0.622530 -0.000000 -0.000000
										CHANNELS 3 Zrotation Yrotation Xrotation
										End Site
										{
											OFFSET 0.000000 0.000000 0.000000
										}
									}
								}
								JOINT RThumb
								{
									OFFSET 0.000000 0.000000 0.000000
									CHANNELS 3 Zrotation Yrotation Xrotation
									End Site
									{
										OFFSET 0.000000 0.000000 0.000000
									}
								}
							}
						}
					}
				}
			}
		}
	}
}
MOTION
Frames: 12
Frame Time: 0.008333
6.397521 21.361311 0.683801 22.413043 -80.921917 -8.425463 -13.220636 6.127382 6.050482 4.373506 -22.426087 -19.369072 5.934280 6.535295 111.100564 2.500197 5.437063 33.752074 2.235500 0.000000 -62.475800 14.220632 -6.284127 4.133701 -0.949043 17.499367 -9.402326 -9.616486 -7.337448 118.938578 -1.500795 -6.985739 -3.162770 -0.399000 -0.000000 -72.387300 -3.026862 -1.495124 -11.519156 -0.489500 -1.439504 -5.350636 -1.410295 -1.664281 -1.325615 5.525584 -10.211099 -3.844368 1.341917 0.019399 1.163165 0.000000 0.000000 0.000000 18.146669 12.685339 -4.704623 1.900276 -37.893255 -51.967242 176.228184 -56.223474 179.576509 40.876268 -41.863505 -17.160041 -0.555625 1.666138 -0.000000 0.000000 0.000000 0.000000 0.000000 0.000000 0.000000 -14.535649 -10.034778 -1.163285 12.775328 15.540652 -70.491277 -178.614028 48.811213 179.882689 -44.179953 49.413760 -22.169506 0.770453 -1.605369 -0.000000 0.000000 0.000000 0.000000 0.000000 0.000000 0.000000 
6.201545 21.426000 0.671817 21.545899 -81.162827 -7.693949 -13.507295 6.171032 6.049988 5.527444 -24.070969 -19.726998 6.674390 6.962590 114.527566 2.278756 3.390329 34.146339 1.042599 -0.000000 -62.415200 14.439336 -6.362253 4.206615 -1.394117 19.477891 -9.420854 -10.952282 -7.690419 123.757758 -1.472209 -7.090511 -4.982811 -0.276600 -0.000000 -70.575600 -2.876350 -1.453890 -11.412679 -0.460320 -1.411738 -5.283607 -1.401946 -1.636092 -1.166897 5.568480 -10.527725 -4.057418 1.363877 0.025646 1.102684 0.000000 0.000000 0.000000 17.973083 13.668263 -4.723024 2.512951 -37.913723 -53.178298 176.216319 -55.585155 179.581315 40.889421 -41.931069 -17.202745 -0.568774 1.677114 -0.000000 0.000000 0.000000 0.000000 0.000000 0.000000 0.000000 -14.502395 -10.474475 -1.170325 12.401656 15.057654 -70.706843 -178.617974 48.410504 179.884616 -44.443686 49.577427 -22.396934 0.779406 -1.617794 -0.000000 0.000000 0.000000 0.000000 0.000000 0.000000 0.000000 
5.999224 21.484206 0.663347 20.313195 -81.336894 -6.523391 -13.772016 6.203637 6.131658 6.825581 -25.902621 -20.131144 7.365845 7.335184 117.359164 2.056257 1.373489 34.529813 -0.149899 -0.000000 -62.003200 14.611925 -6.406177 4.332082 -1.874151 21.500411 -9.441413 -12.226540 -7.953059 127.894557 -1.481860 -7.327809 -6.502109 -0.174300 -0.000000 -68.689700 -2.698821 -1.422502 -11.435095 -0.424342 -1.398621 -5.241427 -1.401411 -1.623021 -1.006702 5.628236 -10.797086 -4.240458 1.365655 0.029800 1.051566 0.000000 0.000000 0.000000 17.801720 14.589596 -4.747022 2.975764 -38.009743 -54.089355 176.199273 -55.008844 179.585129 40.783002 -41.984277 -17.186023 -0.578584 1.689030 -0.000000 0.000000 0.000000 0.000000 0.000000 0.000000 0.000000 -14.362105 -10.864878 -1.188964 11.953152 14.563581 -70.643204 -178.623793 48.087042 179.885594 -44.505440 49.751893 -22.522074 0.783618 -1.630750 -0.000000 0.000000 0.000000 0.000000 0.000000 0.000000 0.000000 
5.789734 21.536888 0.657263 18.962310 -81.444933 -5.142702 -13.998875 6.222619 6.298496 8.211113 -27.849724 -20.652919 7.966129 7.645664 119.565351 1.848632 -0.511357 34.883465 -1.283700 0.000001 -61.369200 14.744054 -6.415035 4.512365 -2.450101 23.528457 -9.569619 -13.361390 -8.129556 131.279814 -1.521096 -7.643839 -7.681354 -0.089600 0.000000 -66.917400 -2.533063 -1.399316 -11.600402 -0.391092 -1.395192 -5.227639 -1.408552 -1.620759 -0.844107 5.711051 -11.031152 -4.396206 1.348193 0.031943 1.009155 0.000000 0.000000 0.000000 17.649895 15.435834 -4.776465 3.288096 -38.161526 -54.698344 176.176122 -54.469180 179.588072 40.582752 -42.055782 -17.135178 -0.585269 1.702560 -0.000000 0.000000 0.000000 0.000000 0.000000 0.000000 0.000000 -14.112188 -11.216721 -1.216525 11.438577 14.062990 -70.319491 -178.632325 47.823336 179.885841 -44.398585 49.949549 -22.568010 0.783694 -1.644560 -0.000000 0.000000 0.000000 0.000000 0.000000 0.000000 0.000000 
5.574821 21.583831 0.653692 17.321449 -81.447966 -3.426838 -14.187800 6.225696 6.531774 9.703801 -29.840301 -21.318843 8.449802 7.897743 121.147432 1.673753 -2.113059 35.145378 -2.263100 0.000000 -60.496700 14.828832 -6.387384 4.708062 -3.043583 25.388446 -9.840989 -14.280658 -8.233385 133.865402 -1.591351 -8.078703 -8.547305 -0.022100 0.000000 -65.147900 -2.352144 -1.390394 -11.856158 -0.353595 -1.409357 -5.234921 -1.421399 -1.636067 -0.687401 5.793449 -11.214833 -4.525712 1.317660 0.032538 0.974774 0.000000 0.000000 0.000000 17.520676 16.139131 -4.800840 3.430652 -38.273118 -55.014125 176.145346 -53.912117 179.590277 40.346262 -42.113915 -17.062914 -0.591362 1.717745 -0.000000 0.000000 0.000000 0.000000 0.000000 0.000000 0.000000 -13.820426 -11.511277 -1.242793 10.928848 13.505135 -69.773806 -178.642768 47.585908 179.885499 -44.171126 50.167204 -22.558346 0.780879 -1.659541 -0.000000 0.000000 0.000000 0.000000 0.000000 0.000000 0.000000 
5.355116 21.625188 0.650622 15.780759 -81.367875 -1.769081 -14.324681 6.206985 6.817532 11.196933 -31.755722 -22.167674 8.788307 8.087429 122.114973 1.548988 -3.289321 35.293848 -2.991600 -0.000000 -59.618500 14.885808 -6.325016 4.904085 -3.707149 26.997542 -10.343876 -14.940240 -8.285690 135.645897 -1.678189 -8.578876 -9.190749 0.036500 0.000000 -63.448901 -2.211160 -1.391868 -12.183924 -0.326053 -1.431866 -5.260284 -1.441063 -1.660334 -0.537470 5.891187 -11.364922 -4.635614 1.275516 0.031820 0.946428 0.000000 0.000000 0.000000 17.441029 16.700661 -4.820383 3.410714 -38.329281 -55.064662 176.109399 -53.331738 179.591997 40.101416 -42.184335 -16.992638 -0.597130 1.734637 -0.000000 0.000000 0.000000 0.000000 0.000000 0.000000 0.000000 -13.472321 -11.762267 -1.265159 10.435748 12.903871 -69.045980 -178.655231 47.367476 179.884818 -43.873798 50.402787 -22.518665 0.776157 -1.675309 -0.000000 0.000000 0.000000 0.000000 0.000000 0.000000 0.000000 
5.132727 21.660636 0.647413 14.347503 -81.196719 -0.219344 -14.409759 6.160548 7.128665 12.639495 -33.504019 -23.179860 8.971988 8.217329 122.497265 1.487361 -3.899931 35.291214 -3.370900 0.000000 -58.943800 14.919452 -6.227233 5.061926 -4.358918 28.206033 -11.074406 -15.313304 -8.304613 136.640237 -1.778621 -9.159249 -9.722189 0.098000 0.000000 -61.825400 -2.102569 -1.405663 -12.524024 -0.306795 -1.464508 -5.293677 -1.467108 -1.694688 -0.400291 5.989049 -11.478405 -4.729595 1.229044 0.030414 0.922617 0.000000 0.000000 0.000000 17.412826 17.084831 -4.827128 3.232596 -38.262003 -54.888031 176.070827 -52.701382 179.593521 39.891265 -42.254060 -16.938356 -0.604349 1.753092 -0.000000 0.000000 0.000000 0.000000 0.000000 0.000000 0.000000 -13.128675 -11.962971 -1.276209 10.043637 12.241740 -68.178980 -178.669126 47.141492 179.883934 -43.545811 50.654620 -22.469070 0.770477 -1.691995 -0.000000 0.000000 0.000000 0.000000 0.000000 0.000000 0.000000 
4.909553 21.689737 0.642839 13.195989 -80.956887 1.018134 -14.440142 6.077830 7.438984 13.921648 -34.992695 -24.308379 8.999374 8.285993 122.332222 1.494910 -3.854648 35.104097 -3.338000 0.000000 -58.649900 14.938421 -6.093999 5.157261 -4.961323 28.938710 -12.012714 -15.400514 -8.303800 136.892221 -1.882074 -9.779727 -10.251459 0.177400 0.000000 -60.280600 -2.047479 -1.429037 -12.830062 -0.301919 -1.501712 -5.326316 -1.500846 -1.733556 -0.278849 6.092545 -11.564506 -4.813681 1.181226 0.028680 0.901349 0.000000 0.000000 0.000000 17.439805 17.299893 -4.820292 2.921928 -38.063290 -54.532617 176.033565 -52.025883 179.595078 39.731482 -42.332646 -16.911076 -0.613386 1.772975 -0.000000 0.000000 0.000000 0.000000 0.000000 0.000000 0.000000 -12.797639 -12.120284 -1.274120 9.783942 11.535123 -67.218863 -178.684392 46.899356 179.883014 -43.220327 50.914575 -22.423557 0.764660 -1.709246 -0.000000 0.000000 0.000000 0.000000 0.000000 0.000000 0.000000 
4.687359 21.712770 0.636299 12.366893 -80.668816 1.873728 -14.417369 5.951346 7.722093 14.947765 -36.161006 -25.474044 8.880623 8.292029 121.659556 1.569223 -3.130617 34.684948 -2.880700 -0.000000 -58.734100 14.941878 -5.925755 5.171492 -5.449220 29.165416 -13.092998 -15.215570 -8.288475 136.451390 -1.975859 -10.381528 -10.849459 0.286000 -0.000000 -58.815900 -2.046239 -1.459776 -13.056359 -0.312416 -1.540412 -5.349001 -1.543720 -1.773575 -0.175295 6.200917 -11.632534 -4.892791 1.135117 0.026961 0.880962 0.000000 0.000000 0.000000 17.509385 17.363002 -4.799505 2.514358 -37.736284 -54.050298 176.001534 -51.318675 179.596826 39.630405 -42.423088 -16.915703 -0.624451 1.794051 -0.000000 0.000000 0.000000 0.000000 0.000000 0.000000 0.000000 -12.495382 -12.242841 -1.259319 9.690200 10.813275 -66.207185 -178.701283 46.637036 179.882164 -42.914176 51.177454 -22.388624 0.759138 -1.726753 -0.000000 0.000000 0.000000 0.000000 0.000000 0.000000 0.000000 
4.467778 21.729830 0.627575 11.841411 -80.357303 2.347494 -14.345215 5.776175 7.955465 15.644427 -36.976302 -26.592534 8.633365 8.234252 120.518116 1.699981 -1.786512 33.996144 -2.050600 0.000001 -59.229001 14.924562 -5.724725 5.100668 -5.778345 28.923690 -14.242454 -14.785921 -8.257403 135.377030 -2.042447 -10.870158 -11.535286 0.424400 -0.000000 -57.407500 -2.094148 -1.493863 -13.171998 -0.338299 -1.576166 -5.355057 -1.597257 -1.809922 -0.090751 6.320188 -11.684421 -4.971632 1.090437 0.025347 0.860013 0.000000 0.000000 0.000000 17.604524 17.310188 -4.767430 2.052442 -37.321695 -53.488591 175.978241 -50.603611 179.598836 39.569111 -42.535700 -16.948239 -0.636868 1.816359 -0.000000 0.000000 0.000000 0.000000 0.000000 0.000000 0.000000 -12.211855 -12.332903 -1.233678 9.750491 10.094880 -65.188941 -178.719336 46.354256 179.881432 -42.643941 51.421023 -22.362978 0.754681 -1.743973 -0.000000 0.000000 0.000000 0.000000 0.000000 0.000000 0.000000 
4.251878 21.740973 0.616849 11.540466 -80.042803 2.510487 -14.229592 5.553164 8.122006 15.979031 -37.437540 -27.589773 8.282173 8.113973 118.945761 1.869707 0.038064 33.001330 -0.959901 -0.000000 -59.910500 14.877775 -5.495449 4.952908 -5.922476 28.299327 -15.386012 -14.145855 -8.205070 133.726462 -2.064996 -11.145623 -12.269958 0.577499 0.000000 -56.068399 -2.173094 -1.527750 -13.160981 -0.375721 -1.606668 -5.340443 -1.661888 -1.839841 -0.025181 6.447641 -11.721474 -5.051623 1.047869 0.023926 0.838018 0.000000 0.000000 0.000000 17.704443 17.173430 -4.725998 1.568623 -36.854677 -52.884079 175.966241 -49.908867 179.601082 39.529046 -42.669545 -16.999385 -0.649925 1.839561 -0.000000 0.000000 0.000000 0.000000 0.000000 0.000000 0.000000 -11.952379 -12.392198 -1.200409 9.963143 9.407436 -64.196460 -178.737905 46.058660 179.880795 -42.414612 51.631420 -22.343017 0.751510 -1.760325 -0.000000 0.000000 0.000000 0.000000 0.000000 0.000000 0.000000 
4.040360 21.745866 0.604327 11.398585 -79.746273 2.427975 -14.076298 5.288463 8.209858 15.948847 -37.563591 -28.410988 7.852386 7.935257 116.975390 2.056438 2.137979 31.694940 0.236600 0.000001 -60.339500 14.794678 -5.243578 4.745958 -5.890385 27.410623 -16.462229 -13.336718 -8.125084 131.556653 -2.033399 -11.134285 -12.971207 0.716500 -0.000000 -54.869200 -2.266706 -1.558806 -13.020824 -0.420925 -1.630687 -5.303395 -1.737782 -1.861816 0.022833 6.581878 -11.756758 -5.132840 1.007183 0.022686 0.814934 0.000000 0.000000 0.000000 17.786304 16.995794 -4.679330 1.101580 -36.383676 -52.269890 175.966491 -49.269741 179.603432 39.494229 -42.819714 -17.059737 -0.662693 1.862986 -0.000000 0.000000 0.000000 0.000000 0.000000 0.000000 0.000000 -11.710988 -12.437427 -1.166894 10.305978 8.813083 -63.249685 -178.757349 45.770360 179.880223 -42.214699 51.801983 -22.319447 0.749320 -1.775182 -0.000000 0.000000 0.000000 0.000000 0.000000 0.000000 0.000000 
